<?xml version="1.0" encoding="UTF-8"?>
<svg width="40px" height="40px" viewBox="0 0 40 40" version="1.1" xmlns="http://www.w3.org/2000/svg" xmlns:xlink="http://www.w3.org/1999/xlink">
    <!-- Generator: Sketch 49.1 (51147) - http://www.bohemiancoding.com/sketch -->
    <title>Group 19</title>
    <desc>Created with Sketch.</desc>
    <defs></defs>
    <g id="Page-1" stroke="none" stroke-width="1" fill="none" fill-rule="evenodd">
        <g id="Reschedule-Appointment-Copy-4" transform="translate(-890.000000, -460.000000)">
            <g id="Group-17" transform="translate(650.000000, 45.000000)">
                <g id="Group" transform="translate(30.000000, 415.000000)">
                    <g id="Group-19" transform="translate(210.000000, 0.000000)">
                        <path d="M0,0 L38,0 C39.1045695,-2.02906125e-16 40,0.8954305 40,2 L40,38 C40,39.1045695 39.1045695,40 38,40 L0,40 L0,0 Z" id="Rectangle" fill="#223143"></path>
                        <path d="M16.3922955,22.9153867 L13.4241937,25.9457361 C13.3533233,26.0180756 13.2384424,26.0180942 13.1675719,25.9457546 L12.1103408,24.8668501 L11.0531823,23.7880382 C10.9822756,23.7156616 10.9822756,23.5983136 11.0531642,23.525937 L15.2010548,19.2908486 C17.1982223,17.2517031 18.9034325,15.5273756 19.3724298,15.0535737 C19.4431369,14.9821421 19.5569289,14.9821421 19.627636,15.0535737 C20.0966333,15.5273571 21.8018254,17.251629 23.7989565,19.2907189 L27.9468472,23.5256961 C28.0177176,23.5980728 28.0177176,23.7153837 27.9468472,23.7877417 L26.8956414,24.86118 C26.4342666,25.3322951 26.0210401,25.7425034 25.8208425,25.9401587 C25.7500083,26.0101079 25.6375412,26.0095149 25.5673422,25.9388986 C25.1852225,25.5542983 23.9795174,24.3390529 22.5796581,22.9098463 L19.48869,19.7540516 L16.3922955,22.9153867 Z" id="Fill-1" fill="#8DDBF9" transform="translate(19.500000, 20.500000) rotate(-180.000000) translate(-19.500000, -20.500000) "></path>
                    </g>
                </g>
            </g>
        </g>
    </g>
</svg>